<svg width="68" height="68" viewBox="0 0 68 68" fill="none" xmlns="http://www.w3.org/2000/svg">
<path d="M67 34C67 33.2678 66.474 32.7996 66.1081 32.5517C65.6987 32.2744 65.1577 32.0439 64.553 31.8436C63.3301 31.4384 61.6008 31.0783 59.497 30.7647C55.7357 30.2042 50.6423 29.7734 44.7835 29.5333C48.7565 25.2208 52.0535 21.3145 54.3168 18.2585C55.5827 16.5492 56.5508 15.0718 57.1291 13.9206C57.415 13.3513 57.6346 12.8058 57.7279 12.3202C57.8114 11.8862 57.8522 11.1832 57.3345 10.6655C56.8168 10.1477 56.1138 10.1886 55.6798 10.272C55.1942 10.3654 54.6487 10.585 54.0794 10.8709C52.9282 11.4492 51.4508 12.4173 49.7415 13.6832C46.6854 15.9465 42.7792 19.2434 38.4667 23.2165C38.2266 17.3577 37.7958 12.2643 37.2352 8.50297C36.9217 6.39917 36.5616 4.66993 36.1564 3.44697C35.9561 2.84226 35.7256 2.30129 35.4483 1.89188C35.2004 1.52596 34.7322 1 34 1C33.2678 1 32.7996 1.52596 32.5517 1.89188C32.2744 2.30129 32.0439 2.84227 31.8436 3.44697C31.4384 4.66994 31.0783 6.39918 30.7647 8.50298C30.2042 12.2643 29.7734 17.3577 29.5333 23.2165C25.2208 19.2435 21.3145 15.9465 18.2585 13.6832C16.5492 12.4173 15.0718 11.4492 13.9206 10.8709C13.3513 10.585 12.8058 10.3654 12.3202 10.2721C11.8862 10.1886 11.1832 10.1478 10.6655 10.6655C10.1477 11.1832 10.1886 11.8862 10.272 12.3202C10.3654 12.8058 10.585 13.3513 10.8709 13.9206C11.4492 15.0719 12.4173 16.5492 13.6832 18.2586C15.9465 21.3146 19.2434 25.2208 23.2165 29.5333C17.3577 29.7734 12.2643 30.2042 8.50297 30.7647C6.39917 31.0783 4.66993 31.4384 3.44697 31.8436C2.84226 32.0439 2.30129 32.2744 1.89188 32.5517C1.52596 32.7996 1 33.2678 1 34C1 34.7322 1.52596 35.2004 1.89188 35.4483C2.30129 35.7256 2.84226 35.9561 3.44697 36.1564C4.66993 36.5616 6.39917 36.9217 8.50297 37.2352C12.2643 37.7958 17.3577 38.2266 23.2165 38.4667C19.2434 42.7792 15.9465 46.6854 13.6832 49.7414C12.4173 51.4508 11.4492 52.9281 10.8709 54.0794C10.585 54.6487 10.3654 55.1942 10.2721 55.6798C10.1886 56.1138 10.1478 56.8168 10.6655 57.3345C11.1832 57.8522 11.8862 57.8114 12.3202 57.7279C12.8058 57.6345 13.3513 57.415 13.9206 57.1291C15.0718 56.5508 16.5492 55.5827 18.2585 54.3168C21.3146 52.0535 25.2208 48.7565 29.5333 44.7835C29.7734 50.6423 30.2042 55.7357 30.7647 59.497C31.0783 61.6008 31.4384 63.3301 31.8436 64.553C32.0439 65.1577 32.2744 65.6987 32.5517 66.1081C32.7996 66.474 33.2678 67 34 67C34.7322 67 35.2004 66.474 35.4483 66.1081C35.7256 65.6987 35.9561 65.1577 36.1564 64.553C36.5616 63.3301 36.9217 61.6008 37.2352 59.497C37.7958 55.7357 38.2266 50.6423 38.4667 44.7835C42.7792 48.7566 46.6854 52.0535 49.7414 54.3168C51.4508 55.5827 52.9281 56.5508 54.0794 57.1291C54.6487 57.415 55.1942 57.6346 55.6798 57.728C56.1138 57.8114 56.8168 57.8522 57.3345 57.3345C57.8522 56.8168 57.8114 56.1138 57.7279 55.6798C57.6345 55.1942 57.415 54.6487 57.1291 54.0794C56.5508 52.9282 55.5827 51.4508 54.3168 49.7415C52.0535 46.6854 48.7565 42.7792 44.7835 38.4667C50.6423 38.2266 55.7357 37.7958 59.497 37.2353C61.6008 36.9217 63.3301 36.5616 64.553 36.1564C65.1577 35.9561 65.6987 35.7256 66.1081 35.4483C66.474 35.2004 67 34.7322 67 34Z" stroke="white" stroke-width="2"/>
</svg>
