<svg width="64" height="68" viewBox="0 0 64 68" fill="none" xmlns="http://www.w3.org/2000/svg">
<path d="M15.3347 25.5264L18.3594 27.2635L16.7145 24.1877C15.5608 22.0301 14.9125 19.5963 14.9125 17.0195C14.9125 8.53953 21.9771 1.51322 31 1.02687V15.3232V18.8682L32.8526 15.8458C34.1342 13.7549 35.9106 11.9643 38.138 10.666C45.4495 6.40411 55.063 8.98923 60.0199 16.5658L47.6142 23.7971L44.5738 25.5693L48.0918 25.6607C50.5457 25.7244 52.9883 26.3707 55.2303 27.6582C62.5694 31.8732 65.1429 41.5102 61.0758 49.601L48.6653 42.4736L45.6406 40.7365L47.2855 43.8123C48.4392 45.9699 49.0875 48.4037 49.0875 50.9805C49.0875 59.4605 42.0229 66.4868 33 66.9731V52.6768V49.1318L31.1474 52.1542C29.8658 54.2451 28.0894 56.0357 25.862 57.334C18.5505 61.5959 8.93701 59.0108 3.98011 51.4342L16.3858 44.2029L19.4262 42.4307L15.9082 42.3393C13.4543 42.2756 11.0117 41.6293 8.76975 40.3418C1.43056 36.1268 -1.14293 26.4898 2.92423 18.399L15.3347 25.5264Z" stroke="black" stroke-width="2"/>
</svg>
