<svg width="63" height="63" viewBox="0 0 63 63" fill="none" xmlns="http://www.w3.org/2000/svg">
<mask id="path-1-inside-1_1_2644" fill="white">
<path fill-rule="evenodd" clip-rule="evenodd" d="M31.5324 14.8507C29.9217 10.9006 27.7054 7.23596 25.4005 4.93107C19.6152 -0.854203 11.0805 1.00517 6.04207 6.04363C1.00361 11.0821 -1.52329 18.9492 4.92951 25.402C7.38373 27.8563 10.8902 30.0469 14.6164 31.624C10.4597 33.2493 6.56144 35.5632 4.15069 37.9739C-1.63459 43.7592 0.224781 52.2939 5.26324 57.3323C10.3017 62.3708 18.1689 64.8977 24.6217 58.4449C27.4448 55.6218 29.9192 51.4063 31.512 47.0656C33.09 51.6385 35.6723 56.1448 38.64 59.1125C45.0928 65.5653 52.96 63.0384 57.9984 58C63.0369 52.9615 64.8963 44.4268 59.111 38.6416C56.3426 35.8732 51.6126 33.2326 46.7824 31.6157C51.2219 30.0277 55.5593 27.5075 58.4435 24.6233C64.8963 18.1705 62.3694 10.3033 57.3309 5.26485C52.2925 0.226394 43.7578 -1.63298 37.9725 4.1523C35.5168 6.608 33.1616 10.6072 31.5324 14.8507Z"/>
</mask>
<path d="M31.5324 14.8507L29.6804 15.6059L31.5883 20.285L33.3995 15.5676L31.5324 14.8507ZM14.6164 31.624L15.3447 33.4866L19.9209 31.6973L15.3959 29.7821L14.6164 31.624ZM31.512 47.0656L33.4026 46.4132L31.5699 41.1021L29.6344 46.3766L31.512 47.0656ZM46.7824 31.6157L46.1088 29.7326L40.6691 31.6784L46.1476 33.5123L46.7824 31.6157ZM23.9863 6.34529C26.041 8.39998 28.131 11.8059 29.6804 15.6059L33.3843 14.0956C31.7124 9.99528 29.3698 6.07194 26.8147 3.51686L23.9863 6.34529ZM7.45628 7.45784C12.0112 2.90289 19.2496 1.60858 23.9863 6.34529L26.8147 3.51686C19.9809 -3.31698 10.1498 -0.892561 4.62785 4.62941L7.45628 7.45784ZM6.34373 23.9878C3.54853 21.1926 2.78832 18.2299 3.15893 15.4575C3.54147 12.5958 5.16171 9.75241 7.45628 7.45784L4.62785 4.62941C1.88396 7.3733 -0.278476 10.9827 -0.805799 14.9275C-1.34506 18.9615 -0.142313 23.1586 3.5153 26.8163L6.34373 23.9878ZM15.3959 29.7821C11.8396 28.277 8.57052 26.2146 6.34373 23.9878L3.5153 26.8163C6.19693 29.4979 9.94079 31.8169 13.8368 33.4658L15.3959 29.7821ZM5.5649 39.3881C7.71654 37.2365 11.345 35.0506 15.3447 33.4866L13.888 29.7613C9.5744 31.448 5.40634 33.8898 2.73647 36.5597L5.5649 39.3881ZM6.67745 55.9181C2.12251 51.3632 0.82819 44.1248 5.5649 39.3881L2.73647 36.5597C-4.09737 43.3935 -1.67295 53.2246 3.84903 58.7465L6.67745 55.9181ZM23.2074 57.0307C20.4123 59.8259 17.4495 60.5861 14.6771 60.2155C11.8154 59.8329 8.97202 58.2127 6.67745 55.9181L3.84903 58.7465C6.59292 61.4904 10.2023 63.6529 14.1471 64.1802C18.1811 64.7195 22.3783 63.5167 26.0359 59.8591L23.2074 57.0307ZM29.6344 46.3766C28.1139 50.5204 25.7751 54.463 23.2074 57.0307L26.0359 59.8591C29.1145 56.7805 31.7245 52.2921 33.3896 47.7546L29.6344 46.3766ZM40.0542 57.6983C37.3525 54.9966 34.9084 50.7771 33.4026 46.4132L29.6214 47.718C31.2715 52.5 33.9921 57.2931 37.2258 60.5268L40.0542 57.6983ZM56.5842 56.5858C54.2896 58.8803 51.4463 60.5006 48.5846 60.8831C45.8122 61.2537 42.8494 60.4935 40.0542 57.6983L37.2258 60.5268C40.8834 64.1844 45.0806 65.3871 49.1146 64.8479C53.0593 64.3205 56.6688 62.1581 59.4126 59.4142L56.5842 56.5858ZM57.6968 40.0558C62.4335 44.7925 61.1392 52.0308 56.5842 56.5858L59.4126 59.4142C64.9346 53.8922 67.359 44.0612 60.5252 37.2274L57.6968 40.0558ZM46.1476 33.5123C50.7928 35.0672 55.2161 37.5751 57.6968 40.0558L60.5252 37.2274C57.4692 34.1713 52.4325 31.3979 47.4173 29.7191L46.1476 33.5123ZM47.456 33.4988C52.0974 31.8386 56.7136 29.1816 59.8577 26.0375L57.0293 23.2091C54.405 25.8333 50.3463 28.2167 46.1088 29.7326L47.456 33.4988ZM59.8577 26.0375C63.5153 22.3799 64.718 18.1827 64.1788 14.1487C63.6515 10.2039 61.489 6.59453 58.7451 3.85064L55.9167 6.67907C58.2113 8.97363 59.8315 11.817 60.214 14.6787C60.5847 17.4511 59.8244 20.4139 57.0293 23.2091L59.8577 26.0375ZM58.7451 3.85064C53.2232 -1.67133 43.3921 -4.09576 36.5583 2.73809L39.3867 5.56651C44.1234 0.829801 51.3618 2.12412 55.9167 6.67907L58.7451 3.85064ZM36.5583 2.73809C33.8397 5.45663 31.3559 9.73029 29.6653 14.1339L33.3995 15.5676C34.9673 11.4841 37.1938 7.75938 39.3867 5.56651L36.5583 2.73809Z" fill="white" mask="url(#path-1-inside-1_1_2644)"/>
</svg>
